<?xml version="1.0" encoding="utf-8"?>
<!-- Generator: Adobe Illustrator 22.0.1, SVG Export Plug-In . SVG Version: 6.00 Build 0)  -->
<svg version="1.2" baseProfile="tiny" id="Livello_1"
	 xmlns="http://www.w3.org/2000/svg" xmlns:xlink="http://www.w3.org/1999/xlink" x="0px" y="0px" viewBox="0 0 615.6 202.1"
	 xml:space="preserve">
<g>
	<path fill="#F0DCC8" d="M89.1,162.3c0-4.7,2.6-7.6,6.3-7.6c2.8,0,4.7,1.5,5.5,4.6l-1.6,0.4c-0.7-2.4-1.8-3.4-3.9-3.4
		c-2.3,0-4.5,1.8-4.5,5.9c0,4.1,1.9,6.2,4.6,6.2c2.3,0,3.9-1.6,3.9-4.3h-3.4v-1.5h5.1v7.1h-1.5v-2.2h0c-0.6,1.2-1.9,2.5-4.2,2.5
		C91.2,170.1,89.1,166.8,89.1,162.3z"/>
	<path fill="#F0DCC8" d="M109.1,169.8V155h9.1v1.6h-7.3v4.6h5.4v1.6h-5.4v5.4h7.7v1.6H109.1z"/>
	<path fill="#F0DCC8" d="M126.1,169.8V155h1.8v13.2h7.1v1.6H126.1z"/>
	<path fill="#F0DCC8" d="M141,169.8l5.2-14.9h1.8l5.2,14.9h-1.8l-1.5-4.2h-5.9l-1.5,4.2H141z M144.7,164h4.8l-2.4-6.9h0L144.7,164z"
		/>
	<path fill="#F0DCC8" d="M162.3,169.8v-13.2h-4.7V155h11.2v1.6h-4.7v13.2H162.3z"/>
	<path fill="#F0DCC8" d="M176,169.8V155h9.1v1.6h-7.3v4.6h5.4v1.6h-5.4v5.4h7.7v1.6H176z"/>
	<path fill="#F0DCC8" d="M192.9,169.8V155h5.1c3.4,0,5.3,1.4,5.3,4.1c0,2.4-1.3,3.6-3.4,4.1l3.6,6.6h-1.9l-3.5-6.4h-3.3v6.4H192.9z
		 M194.7,161.8h3.2c2.3,0,3.6-0.6,3.6-2.7c0-1.9-1.3-2.6-3.6-2.6h-3.2V161.8z"/>
	<path fill="#F0DCC8" d="M211.4,169.8V155h1.8v14.8H211.4z"/>
	<path fill="#F0DCC8" d="M220.6,169.8l5.2-14.9h1.8l5.2,14.9h-1.8l-1.5-4.2h-5.9l-1.5,4.2H220.6z M224.3,164h4.8l-2.4-6.9h0
		L224.3,164z"/>
	<path fill="#F0DCC8" d="M276.6,162.3c0-4.6,2.6-7.6,6.3-7.6c3.1,0,4.8,1.8,5.5,4.5l-1.7,0.5c-0.6-2.2-1.7-3.4-3.8-3.4
		c-2.8,0-4.5,2.3-4.5,6c0,3.9,1.8,6.2,4.5,6.2c2.1,0,3.4-1.2,4-3.6l1.7,0.4c-0.7,2.9-2.6,4.8-5.7,4.8
		C279.1,170.1,276.6,167.2,276.6,162.3z"/>
	<path fill="#F0DCC8" d="M294.4,169.8l5.2-14.9h1.8l5.2,14.9h-1.8l-1.5-4.2h-5.9l-1.5,4.2H294.4z M298.1,164h4.8l-2.4-6.9h0
		L298.1,164z"/>
	<path fill="#F0DCC8" d="M314,169.8V155h8.9v1.6h-7.1v4.8h5.2v1.6h-5.2v6.8H314z"/>
	<path fill="#F0DCC8" d="M330.1,169.8V155h8.9v1.6h-7.1v4.8h5.2v1.6h-5.2v6.8H330.1z"/>
	<path fill="#F0DCC8" d="M346.3,169.8V155h9.1v1.6H348v4.6h5.4v1.6H348v5.4h7.7v1.6H346.3z"/>
	<path fill="#F0DCC8" d="M366.7,169.8v-13.2H362V155h11.2v1.6h-4.7v13.2H366.7z"/>
	<path fill="#F0DCC8" d="M383.9,169.8v-13.2h-4.7V155h11.2v1.6h-4.7v13.2H383.9z"/>
	<path fill="#F0DCC8" d="M397.6,169.8V155h9.1v1.6h-7.3v4.6h5.4v1.6h-5.4v5.4h7.7v1.6H397.6z"/>
	<path fill="#F0DCC8" d="M414.6,169.8V155h5.1c3.4,0,5.3,1.4,5.3,4.1c0,2.4-1.3,3.6-3.4,4.1l3.6,6.6h-1.9l-3.5-6.4h-3.3v6.4H414.6z
		 M416.3,161.8h3.2c2.3,0,3.6-0.6,3.6-2.7c0-1.9-1.3-2.6-3.6-2.6h-3.2V161.8z"/>
	<path fill="#F0DCC8" d="M433.1,169.8V155h1.8v14.8H433.1z"/>
	<path fill="#F0DCC8" d="M442.3,169.8l5.2-14.9h1.8l5.2,14.9h-1.8l-1.5-4.2h-5.9l-1.5,4.2H442.3z M446,164h4.8l-2.4-6.9h0L446,164z"
		/>
</g>
<path id="separatore" fill="#F0DCC8" d="M249.3,164.3l5-7.2c0.5-0.7,1.3-0.9,2-0.5l2.4,1.2c0.9,0.5,1.1,1.6,0.5,2.4l-5.7,6.8
	c-0.5,0.6-1.2,0.7-1.9,0.4l-1.8-0.8C249.1,166.3,248.8,165.1,249.3,164.3z"/>
<g id="logotype">
	<path fill="#F0DCC8" d="M527.7,60c13.3-13.4,25.7-27,37.6-40.3c1.2-1.2,1-2.5-0.2-3.5l-0.2-0.2c-1.2-1-2-1-3.5-0.5
		c-38.7,14-58.5,27.2-55,39.5c1.1,4.1,4.5,6.8,9.3,8.7c-20.3,19.1-41.9,37.5-64.6,54.3c-1.2,1-1.5,2.2,0,3.5l1.7,1.5
		c1,1,2.2,1,3.5,0.2c24.3-18.3,46-37.9,65.8-57.6c23.9,5.2,65.8-0.3,65.8,21.9c0,21-40.5,56.2-61.2,54.5
		c-20.5-1.7-17.2-40.2,14.7-56c1.7-0.7,2-2,1-3s-2-1-3.5-0.5c-36.2,15-41,63.5-14.7,66c24,2.2,71.5-33.7,71.5-61.2
		C595.7,60.6,551.3,63.4,527.7,60z M513.3,52.3C513.3,42.5,540,30,553,25l0.5,0.5c-10.4,11.1-21.3,22.3-32.6,33.2
		C516.2,57.4,513.3,55.4,513.3,52.3z"/>
	<path fill="#F0DCC8" d="M449.1,74.2c26-27,29.5-48.2,14-58.7c-0.7-0.5-1.7,0-2.5,1.5l-1.5,2.2c-0.7,1.5-0.5,2.2,0.7,3.2
		c10.2,7.7,6,27.2-14,48.7c-1.2,1.2-1.2,2.5-0.2,3.2S447.8,75.5,449.1,74.2z"/>
	<path fill="#F0DCC8" d="M398.6,37.8c5.2-6.2,11.5-12.5,16.7-16.5c1-0.7,1-2-0.2-3l-1.7-1.7c-1.2-1.2-2.5-1.2-3.5,0
		c-5.2,5.2-10.7,13-14.5,18.5c-1,1.2-0.7,2.5,0.2,3.2S397.6,39,398.6,37.8z"/>
	<path fill="#F0DCC8" d="M500.3,200.7L526,164c0.7-1.2,0.7-2.2-0.2-3.2c-1-0.7-2-1-3,0.5L500,190.7h-0.5l-7-69.7
		c-0.2-2-1.2-2.5-3-1.5l-2.2,1c-1.2,0.5-1.7,1.7-1.5,3l8,75.5c0.2,1.2,1,2.2,2.2,2.7l1,0.2C498.3,202.4,499.5,201.9,500.3,200.7z"/>
	<path fill="#F0DCC8" d="M292.4,123c28-9.7,54.7-27.2,67.7-44.2l0.5,0.5c-15.2,22-12,44,3.2,44c12,0,31.5-13.5,47.5-31.7
		c1.2-1,1.2-2.2,0.2-3.2c-1-1-2.2-0.5-3.5,0.5c-16.5,17.7-36.5,29.7-44.7,26.7c-7-2.5-10.7-18,15-51.5c1.2-1.2,1.2-2.5,0-3.5l-2-1.7
		c-1.2-1-2.5-0.7-3.5,0.5c-22.5,27.2-47.5,44.7-83,57.2c-1.5,0.5-2,1.7-1.5,3.2l0.7,1.7C289.6,123,290.9,123.5,292.4,123z"/>
	<path fill="#F0DCC8" d="M137.7,37.5c5.2-6.2,12-12.2,17.5-16.5c1-0.7,0.7-1.7-0.5-3l-2-1.7c-1-1-2.2-1-3.5,0
		c-5.2,5.5-11,12.7-14.7,18.5c-1,1.2-0.7,2.5,0.2,3.2C135.7,39,136.7,38.8,137.7,37.5z"/>
	<path fill="#F0DCC8" d="M338.6,35c0-0.2-1-0.5-2-1l-1.7-0.7c-2-0.7-2.7,0.2-2.5,2.2c2,18-35.5,52.7-69.7,76.7l-0.5-0.5l19.7-47
		c0.5-1.5,0-2.5-1-3.5l-1.5-1.2c-1.2-1-2.7-0.5-3.5,1l-6.5,15.4c-21.6,18.6-57,41.5-66.2,39.3c-7.2-1.7-0.7-20,30.7-49
		c1.2-1.2,1.5-2.5,0-3.7l-4.2-3.5c-1-1-2-1-3.5-0.2c-18.6,9.2-40.9,16.8-53.7,13.7c18.5-18.9,30.2-37.3,21.7-42.7
		c-13.5-8.5-52,29.8-32.4,44.8c-3,3-6.3,6-9.8,9.1c-21,18.7-45,32-53,30.7c-9-1.5-1.7-22.2,20.5-49.2c1.2-1.2,1-2.5-0.2-3.5
		l-2.7-2.5c-1.2-1-2.2-1-3.5,0.2C76,97.2,42.5,117.5,2,127.7c-1.7,0.5-2.5,1.5-1.7,3.2l1,2.2c0.5,1.2,1.5,2,3,1.5
		c39-11,68.7-29.2,100.5-60.5l0.5,0.5C78,109.5,87.7,123.2,97,123.2s33.2-13.2,54.2-30.7c5.6-4.6,11-9.5,16.1-14.4
		c13.3,4.6,35.5-1.2,58.3-13.5l0.5,0.5c-36.2,32.7-40.7,58.2-24.5,58.2c11.9,0,35.3-12.7,62.8-35.9l0.2,0.2c0,0,0,0,0,0l-13.3,31.2
		c-0.5,1.5,0,2.5,1,3.5l1.2,1c1,1,2.2,1,3.5,0C310.1,83.7,346.6,49.5,338.6,35z M189.7,35.5c2.8,2-4.8,16-23,34.7
		C153,59.3,185.2,32.3,189.7,35.5z"/>
</g>
</svg>
